<svg width="20" height="21" viewBox="0 0 20 21" fill="none" xmlns="http://www.w3.org/2000/svg">
<g clip-path="url(#clip0_0_607)">
<path d="M10.0826 19.4236C7.80071 19.4236 5.61233 18.5171 3.99882 16.9036C2.38531 15.2901 1.47886 13.1017 1.47886 10.8199C1.47886 8.53802 2.38531 6.34963 3.99882 4.73613C5.61233 3.12262 7.80071 2.21616 10.0826 2.21616C12.3644 2.21616 14.5528 3.12262 16.1663 4.73613C17.7798 6.34963 18.6863 8.53802 18.6863 10.8199C18.6863 13.1017 17.7798 15.2901 16.1663 16.9036C14.5528 18.5171 12.3644 19.4236 10.0826 19.4236ZM10.0826 20.6527C12.6904 20.6527 15.1914 19.6167 17.0354 17.7727C18.8794 15.9287 19.9154 13.4277 19.9154 10.8199C19.9154 8.21204 18.8794 5.71103 17.0354 3.86702C15.1914 2.02301 12.6904 0.987061 10.0826 0.987061C7.47473 0.987061 4.97372 2.02301 3.12972 3.86702C1.28571 5.71103 0.249756 8.21204 0.249756 10.8199C0.249756 13.4277 1.28571 15.9287 3.12972 17.7727C4.97372 19.6167 7.47473 20.6527 10.0826 20.6527Z" fill="black"/>
<path d="M11.2257 9.08428L8.41103 9.43703L8.31024 9.90409L8.86334 10.0061C9.22469 10.0921 9.29598 10.2224 9.21732 10.5826L8.31024 14.8451C8.0718 15.9476 8.4393 16.4663 9.30336 16.4663C9.97322 16.4663 10.7512 16.1565 11.104 15.7313L11.2121 15.2199C10.9663 15.4363 10.6074 15.5223 10.369 15.5223C10.031 15.5223 9.90807 15.2851 9.99534 14.8672L11.2257 9.08428ZM11.3117 6.51792C11.3117 6.8439 11.1822 7.15652 10.9517 7.38702C10.7212 7.61752 10.4086 7.74702 10.0826 7.74702C9.75663 7.74702 9.444 7.61752 9.2135 7.38702C8.983 7.15652 8.8535 6.8439 8.8535 6.51792C8.8535 6.19194 8.983 5.87931 9.2135 5.64881C9.444 5.41831 9.75663 5.28882 10.0826 5.28882C10.4086 5.28882 10.7212 5.41831 10.9517 5.64881C11.1822 5.87931 11.3117 6.19194 11.3117 6.51792Z" fill="black"/>
</g>
<defs>
<clipPath id="clip0_0_607">
<rect width="19.6656" height="19.6656" fill="white" transform="translate(0.249756 0.987305)"/>
</clipPath>
</defs>
</svg>
