<svg width="22" height="21" viewBox="0 0 22 21" fill="none" xmlns="http://www.w3.org/2000/svg">
<path d="M17.075 16.6302C16.7363 16.9713 16.1849 16.9721 15.8452 16.6319L10.943 11.722L6.04062 16.6322C5.70076 16.9726 5.14924 16.9728 4.80911 16.6326C4.46898 16.2925 4.4692 15.741 4.80959 15.4011L9.71973 10.4987L4.8096 5.59628C4.4692 5.25642 4.46898 4.7049 4.80911 4.36478C5.14924 4.02465 5.70076 4.02487 6.04062 4.36526L10.943 9.27539L15.8493 4.36911C16.1871 4.0313 16.7348 4.0313 17.0726 4.36911C17.4104 4.70692 17.4104 5.25462 17.0726 5.59243L12.1664 10.4987L17.0729 15.4052C17.4109 15.7433 17.4119 16.291 17.075 16.6302Z" fill="black"/>
</svg>
