<svg width="14" height="14" viewBox="0 0 14 14" fill="none" xmlns="http://www.w3.org/2000/svg">
<path d="M12.1317 2.2134C11.9378 2.10532 11.7246 2.03658 11.5041 2.01113C11.2837 1.98567 11.0605 2.004 10.8471 2.06505C10.6337 2.12611 10.4345 2.2287 10.2608 2.36695C10.087 2.50521 9.94218 2.67642 9.83454 2.8708L6.69872 8.52427L4.90405 6.72636C4.74824 6.56474 4.56185 6.43583 4.35578 6.34715C4.1497 6.25846 3.92806 6.21178 3.70378 6.20983C3.4795 6.20788 3.25708 6.25069 3.0495 6.33577C2.84191 6.42086 2.65332 6.5465 2.49473 6.70539C2.33613 6.86427 2.21071 7.0532 2.12578 7.26116C2.04085 7.46911 1.99811 7.69194 2.00006 7.91662C2.00201 8.1413 2.04861 8.36334 2.13713 8.56979C2.22566 8.77624 2.35434 8.96296 2.51566 9.11906L5.89387 12.5034C6.21311 12.824 6.64383 13 7.08806 13L7.322 12.9831C7.5809 12.9468 7.82786 12.8508 8.04343 12.7027C8.25901 12.5545 8.43732 12.3583 8.56434 12.1294L12.7871 4.51472C12.8949 4.32051 12.9635 4.10692 12.9889 3.88616C13.0143 3.66539 12.996 3.44178 12.9352 3.22808C12.8743 3.01438 12.7721 2.81478 12.6342 2.64068C12.4963 2.46658 12.3256 2.32139 12.1317 2.2134Z" fill="white"/>
</svg>
